<svg t="1672369915136" class="icon" viewBox="0 0 1024 1024" version="1.1" xmlns="http://www.w3.org/2000/svg" p-id="3852" width="32" height="32"><path d="M94.034199 950.069664V72.633312a71.984801 71.984801 0 0 1 71.336289-72.633312h403.374287a71.984801 71.984801 0 0 1 71.984801 72.633312v121.920203h215.305889a71.984801 71.984801 0 0 1 71.984801 71.9848v683.531349h57.717543a36.316656 36.316656 0 0 1 35.668144 36.316656 35.668144 35.668144 0 0 1-35.668144 35.668145H35.668144A35.668144 35.668144 0 0 1 0 986.38632a36.316656 36.316656 0 0 1 35.668144-36.316656h58.366055z m71.336289 0h403.374287V72.633312H165.370488z m475.359088 0h215.305889V267.835339H640.729576zM259.404687 241.89487h207.523749a35.668144 35.668144 0 0 1 35.668144 36.316656 35.668144 35.668144 0 0 1-35.668144 35.668145H259.404687a35.668144 35.668144 0 0 1-35.668145-35.668145 35.668144 35.668144 0 0 1 35.668145-36.316656z m0 233.464218h207.523749a35.668144 35.668144 0 0 1 35.668144 36.316656 35.668144 35.668144 0 0 1-35.668144 35.668145H259.404687a35.668144 35.668144 0 0 1-35.668145-35.668145 35.668144 35.668144 0 0 1 35.668145-36.316656z m0 233.464218h207.523749a35.668144 35.668144 0 0 1 35.668144 36.316656 35.668144 35.668144 0 0 1-35.668144 33.074098H259.404687a35.668144 35.668144 0 0 1-35.668145-35.668145 35.668144 35.668144 0 0 1 35.668145-33.722609z m488.977834-308.691577a35.668144 35.668144 0 0 1 35.668144 35.668144v71.984801a35.668144 35.668144 0 0 1-35.668144 35.668144 36.316656 36.316656 0 0 1-35.019633-35.668144V435.799873a36.316656 36.316656 0 0 1 36.316656-36.316656z m0 239.300823a35.668144 35.668144 0 0 1 35.668144 35.668145v71.9848a35.668144 35.668144 0 0 1-35.668144 35.668145 36.316656 36.316656 0 0 1-36.316657-35.668145V675.100697a36.316656 36.316656 0 0 1 36.316657-36.316656z" fill="#000000" p-id="3853"></path></svg>