<svg t="1678269686331" class="icon" viewBox="0 0 1024 1024" version="1.1" xmlns="http://www.w3.org/2000/svg" p-id="2817" width="32" height="32"><path d="M512 788.16816418c-138.08408273 0-259.5980743-71.80372323-375.58870343-215.41116839-16.57008987-22.0934536-16.57008987-49.71026963 0-71.80372194C252.4019257 362.86919111 373.91591727 291.06546788 512 291.06546788s259.5980743 71.80372323 375.58870343 215.4111684c16.57008987 22.0934536 16.57008987 49.71026963 0 71.80372322-115.99062914 138.08408273-237.50462198 209.88780468-375.58870343 209.88780468z m0-452.9157891c-121.51399286 0-237.50462198 66.2803595-342.44852368 198.84107852l-5.52336373 11.04672615 5.52336373 11.04672616c104.94390299 132.56071902 215.41116839 198.84107852 342.44852368 198.84107851s237.50462198-66.2803595 342.44852368-198.84107851l5.52336373-11.04672616-5.52336373-11.04672615c-104.94390299-138.08408273-220.93453212-198.84107852-342.44852368-198.84107852z m0 347.97188741c-77.32708566 0-143.60744516-66.2803595-143.60744516-143.60744647 0-38.66354348 16.57008987-71.80372323 38.66354217-99.42053925 27.61681602-27.61681602 60.75699579-44.18690591 99.42053927-44.18690591 77.32708566 0 143.60744516 66.2803595 143.60744645 143.60744516s-60.75699579 143.60744516-138.08408273 143.60744647z m0-243.02798572c-27.61681602 0-49.71026963 11.04672615-71.80372323 27.61681732-16.57008987 16.57008987-27.61681602 44.18690591-27.61681602 71.80372193 0 55.23363335 44.18690591 99.42053925 99.42053925 99.42053928s99.42053925-44.18690591 99.42053925-99.42053928c0-27.61681602-11.04672615-55.23363335-27.61681602-71.80372193-22.0934536-16.57008987-44.18690591-27.61681602-71.80372323-27.61681732z" p-id="2818" fill="#909399"></path></svg>